<?xml version="1.0" encoding="UTF-8"?>
<svg id="Capa_1" data-name="Capa 1" xmlns="http://www.w3.org/2000/svg" viewBox="0 0 947.38 113.54">
  <path d="m.5,113.04V36.88h24.65l4.25,2.04c3.29-.57,7-1.05,11.13-1.44,4.14-.4,8.58-.6,13.35-.6h9.18c3.29,0,6.46.43,9.52,1.28,3.06.85,5.33,2.07,6.8,3.66,1.93-1.02,4.02-1.9,6.29-2.64,2.27-.74,5.18-1.3,8.75-1.7,3.57-.4,8.13-.6,13.68-.6h8.5c5.67,0,10.03.79,13.09,2.38,3.06,1.59,5.24,3.57,6.54,5.95,1.3,2.38,2.1,4.79,2.38,7.23.28,2.44.42,4.5.42,6.21v54.4h-31.11v-47.94c0-4.53-2.72-6.8-8.16-6.8h-9.52c-1.81,0-3.06.23-3.74.68-.68.45-1.02,1.47-1.02,3.06v51h-31.62v-47.94c0-4.53-2.72-6.8-8.16-6.8h-8.67c-2.15,0-3.54.2-4.17.6-.62.4-.94,1.44-.94,3.14v51H.5Z" fill="#69e000" stroke="#007000" stroke-miterlimit="10"/>
  <path d="m175.77,29.57c-11.45,0-17.17-4.87-17.17-14.62,0-5.44,1.44-9.21,4.33-11.3,2.89-2.1,7.17-3.15,12.83-3.15,6.01,0,10.4,1.05,13.17,3.15,2.78,2.1,4.17,5.87,4.17,11.3,0,9.75-5.78,14.62-17.34,14.62Zm-15.64,83.47V36.88h30.94v76.16h-30.94Z" fill="#69e000" stroke="#007000" stroke-miterlimit="10"/>
  <path d="m239.52,113.04c-7.48,0-13.23-1.08-17.25-3.23-4.02-2.15-6.77-5.13-8.25-8.92-1.47-3.8-2.21-8.19-2.21-13.18v-25.67c0-4.53.77-8.7,2.29-12.5,1.53-3.8,4.28-6.86,8.25-9.18,3.97-2.32,9.69-3.49,17.17-3.49h35.19c8.84,0,15.61,1.05,20.31,3.15,4.7,2.1,7.93,5.04,9.69,8.84,1.76,3.8,2.63,8.19,2.63,13.17v21.76h-29.75c-10.2,0-17.93-.23-23.21-.68-5.27-.45-8.98-.74-11.13-.85v2.55c-.11,4.53,2.61,6.8,8.16,6.8h5.27c9.07,0,17.45-.2,25.16-.59,7.71-.4,13.43-.76,17.17-1.11l10.2,16.15c0,1.13-.96,2.21-2.89,3.23-1.93,1.02-5.3,1.9-10.12,2.64-4.82.74-11.65,1.1-20.49,1.1h-36.21Zm3.74-45.56h32.64v-2.38c0-2.27-.2-3.85-.59-4.76-.4-.91-1.62-1.47-3.66-1.7-2.04-.23-5.5-.34-10.37-.34h-9.86c-5.44,0-8.16,2.27-8.16,6.8v2.38Z" fill="#69e000" stroke="#007000" stroke-miterlimit="10"/>
  <path d="m326.22,113.04V36.88h24.65l6.8,3.4c4.76-.91,10.51-1.7,17.25-2.38,6.74-.68,13.06-1.02,18.96-1.02h8.5c5.67,0,10.03.79,13.09,2.38,3.06,1.59,5.24,3.57,6.54,5.95,1.3,2.38,2.1,4.79,2.38,7.23.28,2.44.42,4.5.42,6.21v54.4h-31.11v-47.94c0-4.53-2.72-6.8-8.16-6.8h-22.78c-2.15,0-3.54.2-4.17.6-.62.4-.93,1.44-.93,3.14v51h-31.45Z" fill="#69e000" stroke="#007000" stroke-miterlimit="10"/>
  <path d="m473.95,113.04c-8.61,0-14.51-1.81-17.68-5.44-3.17-3.63-4.76-9.07-4.76-16.32v-32.98h-13.94v-21.42h7.14c1.93,0,3.49-.37,4.67-1.1,1.19-.74,1.96-2.07,2.29-4l3.23-18.19h27.88v23.29h28.39v21.42h-28.39v26.35c0,2.83.68,4.7,2.04,5.61,1.36.91,3.4,1.36,6.12,1.36h17l3.4,19.72c-2.38.34-6.01.71-10.88,1.11-4.87.4-10.2.59-15.98.59h-10.54Z" fill="#69e000" stroke="#007000" stroke-miterlimit="10"/>
  <path d="m524.95,113.04V36.88h24.14l6.46,3.4c5.21-3.4,12.13-5.1,20.74-5.1,5.67,0,10.65.59,14.96,1.78,4.31,1.19,7.79,2.47,10.46,3.83,2.66,1.36,4.33,2.32,5.01,2.89l-8.5,22.1c-1.13-.79-3.26-1.87-6.38-3.23-3.12-1.36-6.77-2.63-10.96-3.82-4.19-1.19-8.61-1.79-13.26-1.79h-1.87c-3.17,0-5.61.54-7.31,1.62-1.7,1.08-2.55,3.43-2.55,7.05v47.43h-30.94Z" fill="#69e000" stroke="#007000" stroke-miterlimit="10"/>
  <path d="m644.62,113.04c-7.48,0-13.23-1.08-17.25-3.23-4.02-2.15-6.77-5.13-8.25-8.92-1.47-3.8-2.21-8.19-2.21-13.18v-25.67c0-4.53.76-8.7,2.29-12.5,1.53-3.8,4.28-6.86,8.25-9.18,3.97-2.32,9.69-3.49,17.17-3.49h35.19c8.84,0,15.61,1.05,20.31,3.15,4.7,2.1,7.93,5.04,9.69,8.84,1.76,3.8,2.63,8.19,2.63,13.17v21.76h-29.75c-10.2,0-17.93-.23-23.21-.68-5.27-.45-8.98-.74-11.13-.85v2.55c-.11,4.53,2.61,6.8,8.16,6.8h5.27c9.07,0,17.45-.2,25.16-.59,7.71-.4,13.43-.76,17.17-1.11l10.2,16.15c0,1.13-.96,2.21-2.89,3.23-1.93,1.02-5.3,1.9-10.11,2.64-4.82.74-11.65,1.1-20.49,1.1h-36.21Zm3.74-45.56h32.64v-2.38c0-2.27-.2-3.85-.59-4.76-.4-.91-1.62-1.47-3.66-1.7-2.04-.23-5.5-.34-10.37-.34h-9.86c-5.44,0-8.16,2.27-8.16,6.8v2.38Z" fill="#69e000" stroke="#007000" stroke-miterlimit="10"/>
  <path d="m731.32,113.04V36.88h24.65l6.8,3.4c4.76-.91,10.51-1.7,17.25-2.38,6.74-.68,13.06-1.02,18.96-1.02h8.5c5.67,0,10.03.79,13.09,2.38,3.06,1.59,5.24,3.57,6.54,5.95,1.3,2.38,2.1,4.79,2.38,7.23.28,2.44.42,4.5.42,6.21v54.4h-31.11v-47.94c0-4.53-2.72-6.8-8.16-6.8h-22.78c-2.15,0-3.54.2-4.17.6-.62.4-.93,1.44-.93,3.14v51h-31.45Z" fill="#69e000" stroke="#007000" stroke-miterlimit="10"/>
  <path d="m873.78,113.04c-7.48,0-13.09-1.08-16.83-3.23-3.74-2.15-6.21-5.13-7.39-8.92-1.19-3.8-1.79-8.19-1.79-13.18v-25.67c0-4.76.62-9.04,1.87-12.83,1.25-3.8,3.71-6.8,7.39-9.01,3.68-2.21,9.27-3.32,16.75-3.32h47.26c7.48,0,13.06,1.11,16.75,3.32,3.68,2.21,6.12,5.21,7.31,9.01,1.19,3.8,1.79,8.08,1.79,12.83v25.67c0,4.99-.6,9.38-1.79,13.18-1.19,3.8-3.63,6.77-7.31,8.92-3.68,2.15-9.26,3.23-16.75,3.23h-47.26Zm13.6-21.42h20.23c5.44,0,8.1-2.27,7.99-6.8v-19.72c0-2.27-.59-3.97-1.79-5.1-1.19-1.13-3.26-1.7-6.21-1.7h-20.06c-2.95,0-5.04.57-6.29,1.7-1.25,1.13-1.87,2.83-1.87,5.1v19.72c-.11,4.53,2.55,6.8,7.99,6.8Z" fill="#69e000" stroke="#007000" stroke-miterlimit="10"/>
</svg>