<?xml version="1.0" encoding="UTF-8"?>
<svg id="Capa_2" data-name="Capa 2" xmlns="http://www.w3.org/2000/svg" viewBox="0 0 151.79 189.2">
  <ellipse cx="102.41" cy="16.72" rx="15.69" ry="16.22" fill="#69e000" stroke="#377000" stroke-miterlimit="10"/>
  <path d="m109.26,41.38c-.74-1.38-2.18-2.23-3.74-2.17-3.38.13-9.69-.1-16.3-2.78-2.39-.97-4.11-2.25-5.25-3.31-1.56-1.45-3.45-2.51-5.48-3.15h0c-2.3-.73-4.75-.9-7.13-.46-5.75,1.06-16.79,4.21-27.24,13.52-13.6,12.12-13.27,46.33-9.86,49.29,2.4,2.07,16.59-24.79,20.82-37.76.69-2.12,2.7-3.52,4.93-3.45,7.84.26,23.6,3.27,14.78,24.39-.63,1.5-.45,3.21.51,4.52,4.22,5.78,15.92,20.91,21.27,18.56,6.59-2.9,7.8-30.3,7.8-30.3l11.87,10.55s20.84,15.69,34.82-30.17c.36-1.17.25-2.43-.28-3.53-1.77-3.65-6.47-11.81-13.99-14.39-1.79-.61-3.75.4-4.19,2.24-.9,3.68-1.85,11.42-.53,26.59,0,0-13.98-1.69-22.82-18.2Z" fill="#69e000" stroke="#377000" stroke-miterlimit="10"/>
  <path d="m64.92,91.58c-2.32,3.88-3.28,10.37,3.56,20.2,0,0,14.04,12.26,22.15,14.44l15.48,3.39c2.19.48,2.91,3.24,1.23,4.73-8,7.07-25.13,22.33-26.34,24.45l-39.79,23.43c-2.9,2.22-1.11,4.08,2.24,2.64,13.19-5.67,46.65-15.2,48.53-17.67l14.37-10.81,19.52-14.77s8.67-13.01-3.33-24.48c0,0-8.84-6.59-20.7-10.02,0,0-13.44-1.51-17.62-7.35-.64-.89-1.32-1.75-2.15-2.47l-8.29-7.09c-2.75-2.35-7-1.72-8.86,1.38Z" fill="#69e000" stroke="#377000" stroke-miterlimit="10"/>
  <path d="m63.15,118.71c4.49,3.46,9.33,7.08,16.67,8.88,1.22.3,1.82,1.67,1.15,2.74-4.09,6.56-17.8,25.57-45.87,38.01-.04.02-.07.03-.1.05-1.07.57-12.01,3.64-32.38,19.99-1.6,1.29-2.9-1.46-1.58-3.03,8.6-10.25,20.92-23.98,29.08-29.24,12.16-7.85,29.59-26.94,30.36-31.35.24-1.36,1.58-6.87,2.67-6.03Z" fill="#69e000" stroke="#377000" stroke-miterlimit="10"/>
</svg>